<svg id="a08fcc49-e52f-4897-bf7c-fe92ad0173fc" data-name="0f80a275-6483-4f20-b621-0f601453237b" xmlns="http://www.w3.org/2000/svg" viewBox="0 0 56.7 56.7"><title>morandin-crest-rotated-white</title><path d="M29.83,52.53h-.45l-2.32-3.94-2.81,3.59h-.44l.4-6.39h.48l-.34,5.56,2.77-3.52h0l2.3,3.84.35-5.55h.46Z" transform="translate(0 0)" fill="#fff"/><path d="M19.94,47.67h0a3.22,3.22,0,0,1-5.6-3.19l.15-.23h0a3.22,3.22,0,0,1,5.6,3.19Zm-5-3.17h0a2.77,2.77,0,0,0,.73,3.86l.05,0a2.75,2.75,0,0,0,3.78-.91l.05-.09h0a2.77,2.77,0,0,0-.73-3.86l-.05,0a2.76,2.76,0,0,0-3.79.88l-.07.12Z" transform="translate(0 0)" fill="#fff"/><path d="M9,42.78l-1.39-2.3a2.53,2.53,0,0,1-.39-1.87,1.72,1.72,0,0,1,.77-1H8a1.91,1.91,0,0,1,2.54.66l1.25-3.22.31.52-1.21,3.08h0l1.08,1.78,2.27-1.37.24.41Zm1.48-4c-.55-.91-1.42-1.32-2.21-.84h0c-.74.44-.85,1.3-.25,2.3l1.13,1.87,2.47-1.49Z" transform="translate(0 0)" fill="#fff"/><path d="M4.35,30.55v-.46l6.18-3.51v.52l-1.71,1,.31,3.77,1.85.66L11,33Zm4-2.2-3.55,2,3.84,1.38Z" transform="translate(0 0)" fill="#fff"/><path d="M5,21.86l.17-.41,6.81-2-5.17-2.1L7,16.92l5.94,2.43-.13.33-7,2.08,5.28,2.11-.17.42Z" transform="translate(0 0)" fill="#fff"/><path d="M10.44,12,12,10.62a3.19,3.19,0,0,1,4.5,0l.15.16h0a3.21,3.21,0,0,1-.27,4.52l-.16.13-1.6,1.41ZM16,15.08a2.71,2.71,0,0,0,.52-3.81,1.46,1.46,0,0,0-.16-.19h0a2.73,2.73,0,0,0-3.85-.28l-.15.14L11.11,12l3.66,4.14Z" transform="translate(0 0)" fill="#fff"/><path d="M19.09,6.11l.44-.18,2.4,5.94-.44.18Z" transform="translate(0 0)" fill="#fff"/><path d="M24.69,4.35h.44l4.65,5.38-.23-5.56H30l.27,6.4h-.36l-4.74-5.5.24,5.69H25Z" transform="translate(0 0)" fill="#fff"/><path d="M42.69,8.48l.37.38-2.77,5.38,5.45-2.57.25.27-2.87,5.29,5.52-2.45.34.36L42.7,17.88l-.26-.28,2.75-5.18-5.33,2.45-.26-.28Z" transform="translate(0 0)" fill="#fff"/><path d="M50.88,19.91l.16.44-6,2.23-.17-.45Z" transform="translate(0 0)" fill="#fff"/><path d="M52.4,25.62v.45L46.84,30.5h5.57V31H46V30.6l5.68-4.52H46v-.46Z" transform="translate(0 0)" fill="#fff"/><path d="M51,36.63l-1.94,4.12-.4-.18,1.74-3.7-2.28-1.06-1.56,3.32-.4-.19,1.56-3.32-2.32-1.09-1.76,3.73-.39-.18,1.95-4.17Z" transform="translate(0 0)" fill="#fff"/><path d="M42.6,40.49V41a3.12,3.12,0,0,0-2.34.84,1.44,1.44,0,0,0-.36,2l0,0h0c.46.5,1,.56,2.26-.21s2.16-.83,2.81-.11h0a1.85,1.85,0,0,1-.34,2.59l0,0a3.22,3.22,0,0,1-2.15.9v-.48a2.77,2.77,0,0,0,1.9-.75,1.38,1.38,0,0,0,.39-1.9l0-.05h0c-.46-.5-1-.57-2.33.22s-2.11.8-2.74.11h0a1.88,1.88,0,0,1,.29-2.64.39.39,0,0,1,.1-.08A3.66,3.66,0,0,1,42.6,40.49Z" transform="translate(0 0)" fill="#fff"/><polygon points="26.81 34.95 17.9 34.95 17.76 34.52 25.99 28.35 17.76 22.17 17.9 21.75 26.81 21.75 26.81 22.22 18.62 22.22 26.53 28.16 26.53 28.54 18.62 34.47 26.81 34.47 26.81 34.95" fill="#fff"/><polygon points="38.79 34.95 29.88 34.95 29.88 34.47 38.08 34.47 30.16 28.54 30.16 28.16 38.08 22.22 29.88 22.22 29.88 21.75 38.79 21.75 38.94 22.17 30.7 28.35 38.94 34.52 38.79 34.95" fill="#fff"/><path d="M28.35,56.7A28.35,28.35,0,1,1,56.7,28.35h0A28.38,28.38,0,0,1,28.35,56.7Zm0-56.3a28,28,0,1,0,28,28v0A28,28,0,0,0,28.35.4Z" transform="translate(0 0)" fill="#fff"/></svg>