<svg id="0f80a275-6483-4f20-b621-0f601453237b" data-name="Layer 1" xmlns="http://www.w3.org/2000/svg" viewBox="0 0 56.69 56.69"><title>morandin-crest-rotated</title><path d="M37.48,60.18l-.45,0-2.32-3.94L31.9,59.83l-.44,0,.4-6.39.48,0L32,59l2.77-3.52h0l2.3,3.84.35-5.55.46,0Z" transform="translate(-7.65 -7.65)" fill="#231f20"/><path d="M27.59,55.32h0a3.22,3.22,0,1,1-5.45-3.42s0,0,0,0a3.22,3.22,0,1,1,5.45,3.42Zm-5-3.17h0a2.78,2.78,0,0,0,.78,3.9,2.75,2.75,0,0,0,3.83-1h0a2.78,2.78,0,0,0-.78-3.9A2.75,2.75,0,0,0,22.56,52.15Z" transform="translate(-7.65 -7.65)" fill="#231f20"/><path d="M16.61,50.43l-1.39-2.3a2.51,2.51,0,0,1-.39-1.87,1.71,1.71,0,0,1,.77-1h0a1.9,1.9,0,0,1,2.54.66l1.25-3.22.31.52L18.49,46.3h0l1.08,1.78,2.27-1.37.24.41Zm1.48-4c-.55-.91-1.42-1.32-2.21-.84h0c-.74.44-.85,1.3-.25,2.3l1.13,1.87,2.47-1.49Z" transform="translate(-7.65 -7.65)" fill="#231f20"/><path d="M12,38.2l0-.46,6.18-3.51,0,.52-1.71,1,.31,3.77,1.85.66.05.49ZM16,36l-3.55,2,3.84,1.38Z" transform="translate(-7.65 -7.65)" fill="#231f20"/><path d="M12.66,29.51l.17-.41,6.81-2L14.47,25l.17-.43L20.58,27l-.13.33-7,2.08,5.28,2.11-.17.42Z" transform="translate(-7.65 -7.65)" fill="#231f20"/><path d="M18.09,19.68l1.6-1.41a3.18,3.18,0,0,1,4.65.13h0a3.2,3.2,0,0,1-.43,4.65l-1.6,1.41Zm5.55,3.05a2.72,2.72,0,0,0,.36-4h0a2.73,2.73,0,0,0-4-.14l-1.24,1.09,3.66,4.14Z" transform="translate(-7.65 -7.65)" fill="#231f20"/><path d="M26.74,13.76l.44-.18,2.4,5.94-.44.18Z" transform="translate(-7.65 -7.65)" fill="#231f20"/><path d="M32.34,12l.44,0,4.65,5.38-.23-5.56.45,0,.27,6.4h-.36l-4.74-5.5.24,5.69-.46,0Z" transform="translate(-7.65 -7.65)" fill="#231f20"/><path d="M50.34,16.13l.37.38-2.77,5.38,5.45-2.57.25.27-2.87,5.29,5.52-2.45.34.36-6.28,2.74-.26-.28,2.75-5.18-5.33,2.45-.26-.28Z" transform="translate(-7.65 -7.65)" fill="#231f20"/><path d="M58.53,27.56l.16.44-6,2.23-.17-.45Z" transform="translate(-7.65 -7.65)" fill="#231f20"/><path d="M60.05,33.27v.45l-5.56,4.43h5.57v.45H53.65v-.35l5.68-4.52H53.65v-.46Z" transform="translate(-7.65 -7.65)" fill="#231f20"/><path d="M58.67,44.28,56.73,48.4l-.4-.18,1.74-3.7-2.28-1.06-1.56,3.32-.4-.19,1.56-3.32-2.32-1.09-1.76,3.73-.39-.18,1.95-4.17Z" transform="translate(-7.65 -7.65)" fill="#231f20"/><path d="M50.25,48.14v.47a3.11,3.11,0,0,0-2.34.84,1.42,1.42,0,0,0-.34,2h0c.46.5,1,.56,2.26-.21s2.16-.83,2.81-.11h0a1.85,1.85,0,0,1-.39,2.63,3.18,3.18,0,0,1-2.15.9l0-.48a2.76,2.76,0,0,0,1.9-.75,1.37,1.37,0,0,0,.35-1.95h0c-.46-.5-1-.57-2.33.22s-2.11.8-2.74.11v0a1.88,1.88,0,0,1,.39-2.72A3.65,3.65,0,0,1,50.25,48.14Z" transform="translate(-7.65 -7.65)" fill="#231f20"/><polygon points="26.81 34.95 17.9 34.95 17.76 34.52 25.99 28.35 17.76 22.17 17.9 21.75 26.81 21.75 26.81 22.22 18.62 22.22 26.53 28.16 26.53 28.54 18.62 34.47 26.81 34.47 26.81 34.95" fill="#231f20"/><polygon points="38.79 34.95 29.88 34.95 29.88 34.47 38.08 34.47 30.16 28.54 30.16 28.16 38.08 22.22 29.88 22.22 29.88 21.75 38.79 21.75 38.94 22.17 30.7 28.35 38.94 34.52 38.79 34.95" fill="#231f20"/><path d="M36,64.35A28.35,28.35,0,1,1,64.35,36,28.38,28.38,0,0,1,36,64.35Zm0-56.3A28,28,0,1,0,64,36,28,28,0,0,0,36,8.05Z" transform="translate(-7.65 -7.65)" fill="#231f20"/></svg>